{
 "cells": [
  {
   "cell_type": "code",
   "execution_count": 1,
   "id": "8621f5d3-2446-47d3-88d0-11b941e81513",
   "metadata": {},
   "outputs": [
    {
     "name": "stdout",
     "output_type": "stream",
     "text": [
      "phi: 1.618033988749895\n",
      "angle: 3.8832220774509327\n",
      "scale: [50, 52, 54, 57, 59, 62, 64, 66, 69, 71, 74, 76, 78, 81, 83, 86, 88, 90, 93, 95, 98, 100, 102, 105, 107, 110]\n",
      "Playing pentatonicmajor-144-5.mid\n",
      "MIDI file: pentatonicmajor-144-5.mid\n",
      "Format: 1  Tracks: 3  Divisions: 480\n",
      "Sequence: meta\n",
      "Text: pentatonicmajor-144-5.mid\n",
      "Track name: vibes\n",
      "Track name: gong\n",
      "^C\n",
      "Terminated sig=0x02\n"
     ]
    }
   ],
   "source": [
    "import phi_midi as pm\n",
    "import math as math\n",
    "\n",
    "n = 144\n",
    "root = 50\n",
    "octaves = 5\n",
    "scale_type = 'dorian'\n",
    "scale_type = 'pentatonicmajor'\n",
    "# scale_type = 'harmonicminor'\n",
    "# scale_type = 'phrygian'\n",
    "# scale_type = 'bluesmajor'\n",
    "tempo=250000*2\n",
    "pulse=120\n",
    "\n",
    "phi = (1 + math.sqrt(5)) / 2\n",
    "angle = (2 * math.pi) / phi\n",
    "\n",
    "scale = pm.build_scale(\n",
    "    root=root, \n",
    "    scale_type=scale_type, \n",
    "    octaves=octaves)\n",
    "\n",
    "filename = f'{scale_type}-{n}-{octaves}.mid'\n",
    "mf = pm.new_midi(title=filename)\n",
    "mf.tracks[0].append(pm.MetaMessage('set_tempo', tempo=tempo, time=0))\n",
    "\n",
    "vibes = pm.set_new_track(mf, name='vibes')\n",
    "vibes.append(pm.Message('program_change', program=11, time=0))\n",
    "\n",
    "gong = pm.set_new_track(mf, name='gong')\n",
    "gong.append(pm.Message('program_change', program=32, channel=1, time=0))\n",
    "\n",
    "angles = []\n",
    "\n",
    "print('phi:', phi)\n",
    "print('angle:', angle)\n",
    "print('scale:', scale)\n",
    "\n",
    "for i in range(n):\n",
    "    theta = angle * i\n",
    "    angles.append(theta)\n",
    "    \n",
    "sins = list(map(lambda x: math.sin(x), angles))\n",
    "coss = list(map(lambda x: math.cos(x), angles))\n",
    "\n",
    "def get_note(x):\n",
    "    '''range -1 to 1'''\n",
    "    divs = len(scale)\n",
    "    i = int((x+1)/2 * divs)\n",
    "    return scale[i]\n",
    "    \n",
    "def get_pan(x):\n",
    "    '''range -1 to 1'''\n",
    "    divs = 127\n",
    "    i = int((x+1)/2 * divs)\n",
    "    return i\n",
    "    \n",
    "notes = list(map(get_note, sins))\n",
    "pans = list(map(get_pan, coss))\n",
    "\n",
    "for i, note in enumerate(notes):\n",
    "    vibes.append(pm.Message('control_change', control=10, value=pans[i], time=0))\n",
    "    pm.set_note(vibes, note, duration=pulse)\n",
    "\n",
    "gongs = int(n / octaves)\n",
    "gong_gap = octaves * pulse\n",
    "\n",
    "root -= 12\n",
    "\n",
    "for i in range(gongs):\n",
    "    if i > gongs/phi:\n",
    "        # set_note(gong, root+(octaves-1)*12, channel=1, duration=gong_gap)\n",
    "        pm.set_note(gong, root, channel=1, duration=gong_gap)\n",
    "    else:\n",
    "        pm.set_note(gong, root-12, channel=1, duration=gong_gap)\n",
    "\n",
    "mf.save(filename)\n",
    "\n",
    "!timidity $filename"
   ]
  },
  {
   "cell_type": "code",
   "execution_count": null,
   "id": "19f63180-649e-402b-96e6-60060d4622c8",
   "metadata": {},
   "outputs": [],
   "source": []
  },
  {
   "cell_type": "code",
   "execution_count": 11,
   "id": "78c0d136-da4a-4f5c-92a7-c853b0782b22",
   "metadata": {},
   "outputs": [],
   "source": [
    "import phi_midi as pm\n"
   ]
  },
  {
   "cell_type": "code",
   "execution_count": 5,
   "id": "95dd628d-4fca-4679-b2b8-eec983455a83",
   "metadata": {},
   "outputs": [
    {
     "name": "stdout",
     "output_type": "stream",
     "text": [
      "=== Track 0\n",
      "MetaMessage('track_name', name='meta', time=0)\n",
      "MetaMessage('text', text='pentatonicmajor-144-5.mid', time=0)\n",
      "MetaMessage('set_tempo', tempo=500000, time=0)\n",
      "=== Track 1\n",
      "MetaMessage('track_name', name='vibes', time=0)\n",
      "Message('program_change', channel=0, program=11, time=0)\n",
      "Message('control_change', channel=0, control=10, value=127, time=0)\n",
      "Message('note_on', channel=0, note=81, velocity=64, time=0)\n",
      "Message('note_off', channel=0, note=81, velocity=127, time=120)\n",
      "Message('control_change', channel=0, control=10, value=16, time=0)\n",
      "Message('note_on', channel=0, note=59, velocity=64, time=0)\n",
      "Message('note_off', channel=0, note=59, velocity=127, time=120)\n",
      "Message('control_change', channel=0, control=10, value=69, time=0)\n",
      "Message('note_on', channel=0, note=110, velocity=64, time=0)\n",
      "Message('note_off', channel=0, note=110, velocity=127, time=120)\n",
      "Message('control_change', channel=0, control=10, value=102, time=0)\n",
      "Message('note_on', channel=0, note=54, velocity=64, time=0)\n",
      "Message('note_off', channel=0, note=54, velocity=127, time=120)\n",
      "Message('control_change', channel=0, control=10, value=0, time=0)\n",
      "Message('note_on', channel=0, note=86, velocity=64, time=0)\n",
      "Message('note_off', channel=0, note=86, velocity=127, time=120)\n",
      "Message('control_change', channel=0, control=10, value=117, time=0)\n",
      "Message('note_on', channel=0, note=95, velocity=64, time=0)\n",
      "Message('note_off', channel=0, note=95, velocity=127, time=120)\n",
      "Message('control_change', channel=0, control=10, value=47, time=0)\n",
      "Message('note_on', channel=0, note=50, velocity=64, time=0)\n",
      "Message('note_off', channel=0, note=50, velocity=127, time=120)\n",
      "Message('control_change', channel=0, control=10, value=34, time=0)\n",
      "Message('note_on', channel=0, note=107, velocity=64, time=0)\n",
      "Message('note_off', channel=0, note=107, velocity=127, time=120)\n",
      "Message('control_change', channel=0, control=10, value=123, time=0)\n",
      "Message('note_on', channel=0, note=69, velocity=64, time=0)\n",
      "Message('note_off', channel=0, note=69, velocity=127, time=120)\n",
      "Message('control_change', channel=0, control=10, value=4, time=0)\n",
      "Message('note_on', channel=0, note=69, velocity=64, time=0)\n",
      "Message('note_off', channel=0, note=69, velocity=127, time=120)\n",
      "Message('control_change', channel=0, control=10, value=90, time=0)\n",
      "Message('note_on', channel=0, note=107, velocity=64, time=0)\n",
      "Message('note_off', channel=0, note=107, velocity=127, time=120)\n",
      "Message('control_change', channel=0, control=10, value=82, time=0)\n",
      "Message('note_on', channel=0, note=50, velocity=64, time=0)\n",
      "Message('note_off', channel=0, note=50, velocity=127, time=120)\n",
      "Message('control_change', channel=0, control=10, value=8, time=0)\n",
      "Message('note_on', channel=0, note=95, velocity=64, time=0)\n",
      "Message('note_off', channel=0, note=95, velocity=127, time=120)\n",
      "Message('control_change', channel=0, control=10, value=125, time=0)\n",
      "Message('note_on', channel=0, note=86, velocity=64, time=0)\n",
      "Message('note_off', channel=0, note=86, velocity=127, time=120)\n",
      "Message('control_change', channel=0, control=10, value=26, time=0)\n",
      "Message('note_on', channel=0, note=54, velocity=64, time=0)\n",
      "Message('note_off', channel=0, note=54, velocity=127, time=120)\n",
      "Message('control_change', channel=0, control=10, value=55, time=0)\n",
      "Message('note_on', channel=0, note=110, velocity=64, time=0)\n",
      "Message('note_off', channel=0, note=110, velocity=127, time=120)\n",
      "Message('control_change', channel=0, control=10, value=112, time=0)\n",
      "Message('note_on', channel=0, note=59, velocity=64, time=0)\n",
      "Message('note_off', channel=0, note=59, velocity=127, time=120)\n",
      "Message('control_change', channel=0, control=10, value=0, time=0)\n",
      "Message('note_on', channel=0, note=78, velocity=64, time=0)\n",
      "Message('note_off', channel=0, note=78, velocity=127, time=120)\n",
      "Message('control_change', channel=0, control=10, value=108, time=0)\n",
      "Message('note_on', channel=0, note=102, velocity=64, time=0)\n",
      "Message('note_off', channel=0, note=102, velocity=127, time=120)\n",
      "Message('control_change', channel=0, control=10, value=60, time=0)\n",
      "Message('note_on', channel=0, note=50, velocity=64, time=0)\n",
      "Message('note_off', channel=0, note=50, velocity=127, time=120)\n",
      "Message('control_change', channel=0, control=10, value=22, time=0)\n",
      "Message('note_on', channel=0, note=102, velocity=64, time=0)\n",
      "Message('note_off', channel=0, note=102, velocity=127, time=120)\n",
      "Message('control_change', channel=0, control=10, value=126, time=0)\n",
      "Message('note_on', channel=0, note=76, velocity=64, time=0)\n",
      "Message('note_off', channel=0, note=76, velocity=127, time=120)\n",
      "Message('control_change', channel=0, control=10, value=11, time=0)\n",
      "Message('note_on', channel=0, note=62, velocity=64, time=0)\n",
      "Message('note_off', channel=0, note=62, velocity=127, time=120)\n",
      "Message('control_change', channel=0, control=10, value=77, time=0)\n",
      "Message('note_on', channel=0, note=110, velocity=64, time=0)\n",
      "Message('note_off', channel=0, note=110, velocity=127, time=120)\n",
      "Message('control_change', channel=0, control=10, value=95, time=0)\n",
      "Message('note_on', channel=0, note=52, velocity=64, time=0)\n",
      "Message('note_off', channel=0, note=52, velocity=127, time=120)\n",
      "Message('control_change', channel=0, control=10, value=3, time=0)\n",
      "Message('note_on', channel=0, note=88, velocity=64, time=0)\n",
      "Message('note_off', channel=0, note=88, velocity=127, time=120)\n",
      "Message('control_change', channel=0, control=10, value=121, time=0)\n",
      "Message('note_on', channel=0, note=93, velocity=64, time=0)\n",
      "Message('note_off', channel=0, note=93, velocity=127, time=120)\n",
      "Message('control_change', channel=0, control=10, value=38, time=0)\n",
      "Message('note_on', channel=0, note=52, velocity=64, time=0)\n",
      "Message('note_off', channel=0, note=52, velocity=127, time=120)\n",
      "Message('control_change', channel=0, control=10, value=42, time=0)\n",
      "Message('note_on', channel=0, note=110, velocity=64, time=0)\n",
      "Message('note_off', channel=0, note=110, velocity=127, time=120)\n",
      "Message('control_change', channel=0, control=10, value=119, time=0)\n",
      "Message('note_on', channel=0, note=64, velocity=64, time=0)\n",
      "Message('note_off', channel=0, note=64, velocity=127, time=120)\n",
      "Message('control_change', channel=0, control=10, value=2, time=0)\n",
      "Message('note_on', channel=0, note=71, velocity=64, time=0)\n",
      "Message('note_off', channel=0, note=71, velocity=127, time=120)\n",
      "Message('control_change', channel=0, control=10, value=97, time=0)\n",
      "Message('note_on', channel=0, note=105, velocity=64, time=0)\n",
      "Message('note_off', channel=0, note=105, velocity=127, time=120)\n",
      "Message('control_change', channel=0, control=10, value=74, time=0)\n",
      "Message('note_on', channel=0, note=50, velocity=64, time=0)\n",
      "Message('note_off', channel=0, note=50, velocity=127, time=120)\n",
      "Message('control_change', channel=0, control=10, value=13, time=0)\n",
      "Message('note_on', channel=0, note=98, velocity=64, time=0)\n",
      "Message('note_off', channel=0, note=98, velocity=127, time=120)\n",
      "Message('control_change', channel=0, control=10, value=126, time=0)\n",
      "Message('note_on', channel=0, note=83, velocity=64, time=0)\n",
      "Message('note_off', channel=0, note=83, velocity=127, time=120)\n",
      "Message('control_change', channel=0, control=10, value=20, time=0)\n",
      "Message('note_on', channel=0, note=57, velocity=64, time=0)\n",
      "Message('note_off', channel=0, note=57, velocity=127, time=120)\n",
      "Message('control_change', channel=0, control=10, value=63, time=0)\n",
      "Message('note_on', channel=0, note=110, velocity=64, time=0)\n",
      "Message('note_off', channel=0, note=110, velocity=127, time=120)\n",
      "Message('control_change', channel=0, control=10, value=106, time=0)\n",
      "Message('note_on', channel=0, note=57, velocity=64, time=0)\n",
      "Message('note_off', channel=0, note=57, velocity=127, time=120)\n",
      "Message('control_change', channel=0, control=10, value=0, time=0)\n",
      "Message('note_on', channel=0, note=83, velocity=64, time=0)\n",
      "Message('note_off', channel=0, note=83, velocity=127, time=120)\n",
      "Message('control_change', channel=0, control=10, value=114, time=0)\n",
      "Message('note_on', channel=0, note=98, velocity=64, time=0)\n",
      "Message('note_off', channel=0, note=98, velocity=127, time=120)\n",
      "Message('control_change', channel=0, control=10, value=52, time=0)\n",
      "Message('note_on', channel=0, note=50, velocity=64, time=0)\n",
      "Message('note_off', channel=0, note=50, velocity=127, time=120)\n",
      "Message('control_change', channel=0, control=10, value=29, time=0)\n",
      "Message('note_on', channel=0, note=107, velocity=64, time=0)\n",
      "Message('note_off', channel=0, note=107, velocity=127, time=120)\n",
      "Message('control_change', channel=0, control=10, value=124, time=0)\n",
      "Message('note_on', channel=0, note=71, velocity=64, time=0)\n",
      "Message('note_off', channel=0, note=71, velocity=127, time=120)\n",
      "Message('control_change', channel=0, control=10, value=7, time=0)\n",
      "Message('note_on', channel=0, note=66, velocity=64, time=0)\n",
      "Message('note_off', channel=0, note=66, velocity=127, time=120)\n",
      "Message('control_change', channel=0, control=10, value=85, time=0)\n",
      "Message('note_on', channel=0, note=110, velocity=64, time=0)\n",
      "Message('note_off', channel=0, note=110, velocity=127, time=120)\n",
      "Message('control_change', channel=0, control=10, value=87, time=0)\n",
      "Message('note_on', channel=0, note=50, velocity=64, time=0)\n",
      "Message('note_off', channel=0, note=50, velocity=127, time=120)\n",
      "Message('control_change', channel=0, control=10, value=6, time=0)\n",
      "Message('note_on', channel=0, note=93, velocity=64, time=0)\n",
      "Message('note_off', channel=0, note=93, velocity=127, time=120)\n",
      "Message('control_change', channel=0, control=10, value=124, time=0)\n",
      "Message('note_on', channel=0, note=88, velocity=64, time=0)\n",
      "Message('note_off', channel=0, note=88, velocity=127, time=120)\n",
      "Message('control_change', channel=0, control=10, value=31, time=0)\n",
      "Message('note_on', channel=0, note=52, velocity=64, time=0)\n",
      "Message('note_off', channel=0, note=52, velocity=127, time=120)\n",
      "Message('control_change', channel=0, control=10, value=50, time=0)\n",
      "Message('note_on', channel=0, note=110, velocity=64, time=0)\n",
      "Message('note_off', channel=0, note=110, velocity=127, time=120)\n",
      "Message('control_change', channel=0, control=10, value=115, time=0)\n",
      "Message('note_on', channel=0, note=62, velocity=64, time=0)\n",
      "Message('note_off', channel=0, note=62, velocity=127, time=120)\n",
      "Message('control_change', channel=0, control=10, value=0, time=0)\n",
      "Message('note_on', channel=0, note=76, velocity=64, time=0)\n",
      "Message('note_off', channel=0, note=76, velocity=127, time=120)\n",
      "Message('control_change', channel=0, control=10, value=104, time=0)\n",
      "Message('note_on', channel=0, note=102, velocity=64, time=0)\n",
      "Message('note_off', channel=0, note=102, velocity=127, time=120)\n",
      "Message('control_change', channel=0, control=10, value=65, time=0)\n",
      "Message('note_on', channel=0, note=50, velocity=64, time=0)\n",
      "Message('note_off', channel=0, note=50, velocity=127, time=120)\n",
      "Message('control_change', channel=0, control=10, value=18, time=0)\n",
      "Message('note_on', channel=0, note=102, velocity=64, time=0)\n",
      "Message('note_off', channel=0, note=102, velocity=127, time=120)\n",
      "Message('control_change', channel=0, control=10, value=126, time=0)\n",
      "Message('note_on', channel=0, note=78, velocity=64, time=0)\n",
      "Message('note_off', channel=0, note=78, velocity=127, time=120)\n",
      "Message('control_change', channel=0, control=10, value=14, time=0)\n",
      "Message('note_on', channel=0, note=59, velocity=64, time=0)\n",
      "Message('note_off', channel=0, note=59, velocity=127, time=120)\n",
      "Message('control_change', channel=0, control=10, value=72, time=0)\n",
      "Message('note_on', channel=0, note=110, velocity=64, time=0)\n",
      "Message('note_off', channel=0, note=110, velocity=127, time=120)\n",
      "Message('control_change', channel=0, control=10, value=99, time=0)\n",
      "Message('note_on', channel=0, note=54, velocity=64, time=0)\n",
      "Message('note_off', channel=0, note=54, velocity=127, time=120)\n",
      "Message('control_change', channel=0, control=10, value=1, time=0)\n",
      "Message('note_on', channel=0, note=86, velocity=64, time=0)\n",
      "Message('note_off', channel=0, note=86, velocity=127, time=120)\n",
      "Message('control_change', channel=0, control=10, value=118, time=0)\n",
      "Message('note_on', channel=0, note=95, velocity=64, time=0)\n",
      "Message('note_off', channel=0, note=95, velocity=127, time=120)\n",
      "Message('control_change', channel=0, control=10, value=43, time=0)\n",
      "Message('note_on', channel=0, note=50, velocity=64, time=0)\n",
      "Message('note_off', channel=0, note=50, velocity=127, time=120)\n",
      "Message('control_change', channel=0, control=10, value=37, time=0)\n",
      "Message('note_on', channel=0, note=107, velocity=64, time=0)\n",
      "Message('note_off', channel=0, note=107, velocity=127, time=120)\n",
      "Message('control_change', channel=0, control=10, value=121, time=0)\n",
      "Message('note_on', channel=0, note=66, velocity=64, time=0)\n",
      "Message('note_off', channel=0, note=66, velocity=127, time=120)\n",
      "Message('control_change', channel=0, control=10, value=3, time=0)\n",
      "Message('note_on', channel=0, note=69, velocity=64, time=0)\n",
      "Message('note_off', channel=0, note=69, velocity=127, time=120)\n",
      "Message('control_change', channel=0, control=10, value=93, time=0)\n",
      "Message('note_on', channel=0, note=107, velocity=64, time=0)\n",
      "Message('note_off', channel=0, note=107, velocity=127, time=120)\n",
      "Message('control_change', channel=0, control=10, value=79, time=0)\n",
      "Message('note_on', channel=0, note=50, velocity=64, time=0)\n",
      "Message('note_off', channel=0, note=50, velocity=127, time=120)\n",
      "Message('control_change', channel=0, control=10, value=10, time=0)\n",
      "Message('note_on', channel=0, note=98, velocity=64, time=0)\n",
      "Message('note_off', channel=0, note=98, velocity=127, time=120)\n",
      "Message('control_change', channel=0, control=10, value=126, time=0)\n",
      "Message('note_on', channel=0, note=86, velocity=64, time=0)\n",
      "Message('note_off', channel=0, note=86, velocity=127, time=120)\n",
      "Message('control_change', channel=0, control=10, value=24, time=0)\n",
      "Message('note_on', channel=0, note=54, velocity=64, time=0)\n",
      "Message('note_off', channel=0, note=54, velocity=127, time=120)\n",
      "Message('control_change', channel=0, control=10, value=58, time=0)\n",
      "Message('note_on', channel=0, note=110, velocity=64, time=0)\n",
      "Message('note_off', channel=0, note=110, velocity=127, time=120)\n",
      "Message('control_change', channel=0, control=10, value=109, time=0)\n",
      "Message('note_on', channel=0, note=59, velocity=64, time=0)\n",
      "Message('note_off', channel=0, note=59, velocity=127, time=120)\n",
      "Message('control_change', channel=0, control=10, value=0, time=0)\n",
      "Message('note_on', channel=0, note=81, velocity=64, time=0)\n",
      "Message('note_off', channel=0, note=81, velocity=127, time=120)\n",
      "Message('control_change', channel=0, control=10, value=110, time=0)\n",
      "Message('note_on', channel=0, note=100, velocity=64, time=0)\n",
      "Message('note_off', channel=0, note=100, velocity=127, time=120)\n",
      "Message('control_change', channel=0, control=10, value=57, time=0)\n",
      "Message('note_on', channel=0, note=50, velocity=64, time=0)\n",
      "Message('note_off', channel=0, note=50, velocity=127, time=120)\n",
      "Message('control_change', channel=0, control=10, value=25, time=0)\n",
      "Message('note_on', channel=0, note=105, velocity=64, time=0)\n",
      "Message('note_off', channel=0, note=105, velocity=127, time=120)\n",
      "Message('control_change', channel=0, control=10, value=125, time=0)\n",
      "Message('note_on', channel=0, note=74, velocity=64, time=0)\n",
      "Message('note_off', channel=0, note=74, velocity=127, time=120)\n",
      "Message('control_change', channel=0, control=10, value=9, time=0)\n",
      "Message('note_on', channel=0, note=64, velocity=64, time=0)\n",
      "Message('note_off', channel=0, note=64, velocity=127, time=120)\n",
      "Message('control_change', channel=0, control=10, value=80, time=0)\n",
      "Message('note_on', channel=0, note=110, velocity=64, time=0)\n",
      "Message('note_off', channel=0, note=110, velocity=127, time=120)\n",
      "Message('control_change', channel=0, control=10, value=92, time=0)\n",
      "Message('note_on', channel=0, note=52, velocity=64, time=0)\n",
      "Message('note_off', channel=0, note=52, velocity=127, time=120)\n",
      "Message('control_change', channel=0, control=10, value=4, time=0)\n",
      "Message('note_on', channel=0, note=90, velocity=64, time=0)\n",
      "Message('note_off', channel=0, note=90, velocity=127, time=120)\n",
      "Message('control_change', channel=0, control=10, value=122, time=0)\n",
      "Message('note_on', channel=0, note=90, velocity=64, time=0)\n",
      "Message('note_off', channel=0, note=90, velocity=127, time=120)\n",
      "Message('control_change', channel=0, control=10, value=36, time=0)\n",
      "Message('note_on', channel=0, note=52, velocity=64, time=0)\n",
      "Message('note_off', channel=0, note=52, velocity=127, time=120)\n",
      "Message('control_change', channel=0, control=10, value=45, time=0)\n",
      "Message('note_on', channel=0, note=110, velocity=64, time=0)\n",
      "Message('note_off', channel=0, note=110, velocity=127, time=120)\n",
      "Message('control_change', channel=0, control=10, value=118, time=0)\n",
      "Message('note_on', channel=0, note=64, velocity=64, time=0)\n",
      "Message('note_off', channel=0, note=64, velocity=127, time=120)\n",
      "Message('control_change', channel=0, control=10, value=1, time=0)\n",
      "Message('note_on', channel=0, note=74, velocity=64, time=0)\n",
      "Message('note_off', channel=0, note=74, velocity=127, time=120)\n",
      "Message('control_change', channel=0, control=10, value=100, time=0)\n",
      "Message('note_on', channel=0, note=105, velocity=64, time=0)\n",
      "Message('note_off', channel=0, note=105, velocity=127, time=120)\n",
      "Message('control_change', channel=0, control=10, value=71, time=0)\n",
      "Message('note_on', channel=0, note=50, velocity=64, time=0)\n",
      "Message('note_off', channel=0, note=50, velocity=127, time=120)\n",
      "Message('control_change', channel=0, control=10, value=15, time=0)\n",
      "Message('note_on', channel=0, note=100, velocity=64, time=0)\n",
      "Message('note_off', channel=0, note=100, velocity=127, time=120)\n",
      "Message('control_change', channel=0, control=10, value=126, time=0)\n",
      "Message('note_on', channel=0, note=81, velocity=64, time=0)\n",
      "Message('note_off', channel=0, note=81, velocity=127, time=120)\n",
      "Message('control_change', channel=0, control=10, value=18, time=0)\n",
      "Message('note_on', channel=0, note=57, velocity=64, time=0)\n",
      "Message('note_off', channel=0, note=57, velocity=127, time=120)\n",
      "Message('control_change', channel=0, control=10, value=67, time=0)\n",
      "Message('note_on', channel=0, note=110, velocity=64, time=0)\n",
      "Message('note_off', channel=0, note=110, velocity=127, time=120)\n",
      "Message('control_change', channel=0, control=10, value=103, time=0)\n",
      "Message('note_on', channel=0, note=54, velocity=64, time=0)\n",
      "Message('note_off', channel=0, note=54, velocity=127, time=120)\n",
      "Message('control_change', channel=0, control=10, value=0, time=0)\n",
      "Message('note_on', channel=0, note=83, velocity=64, time=0)\n",
      "Message('note_off', channel=0, note=83, velocity=127, time=120)\n",
      "Message('control_change', channel=0, control=10, value=115, time=0)\n",
      "Message('note_on', channel=0, note=98, velocity=64, time=0)\n",
      "Message('note_off', channel=0, note=98, velocity=127, time=120)\n",
      "Message('control_change', channel=0, control=10, value=48, time=0)\n",
      "Message('note_on', channel=0, note=50, velocity=64, time=0)\n",
      "Message('note_off', channel=0, note=50, velocity=127, time=120)\n",
      "Message('control_change', channel=0, control=10, value=32, time=0)\n",
      "Message('note_on', channel=0, note=107, velocity=64, time=0)\n",
      "Message('note_off', channel=0, note=107, velocity=127, time=120)\n",
      "Message('control_change', channel=0, control=10, value=123, time=0)\n",
      "Message('note_on', channel=0, note=69, velocity=64, time=0)\n",
      "Message('note_off', channel=0, note=69, velocity=127, time=120)\n",
      "Message('control_change', channel=0, control=10, value=5, time=0)\n",
      "Message('note_on', channel=0, note=66, velocity=64, time=0)\n",
      "Message('note_off', channel=0, note=66, velocity=127, time=120)\n",
      "Message('control_change', channel=0, control=10, value=88, time=0)\n",
      "Message('note_on', channel=0, note=107, velocity=64, time=0)\n",
      "Message('note_off', channel=0, note=107, velocity=127, time=120)\n",
      "Message('control_change', channel=0, control=10, value=84, time=0)\n",
      "Message('note_on', channel=0, note=50, velocity=64, time=0)\n",
      "Message('note_off', channel=0, note=50, velocity=127, time=120)\n",
      "Message('control_change', channel=0, control=10, value=7, time=0)\n",
      "Message('note_on', channel=0, note=95, velocity=64, time=0)\n",
      "Message('note_off', channel=0, note=95, velocity=127, time=120)\n",
      "Message('control_change', channel=0, control=10, value=125, time=0)\n",
      "Message('note_on', channel=0, note=88, velocity=64, time=0)\n",
      "Message('note_off', channel=0, note=88, velocity=127, time=120)\n",
      "Message('control_change', channel=0, control=10, value=28, time=0)\n",
      "Message('note_on', channel=0, note=54, velocity=64, time=0)\n",
      "Message('note_off', channel=0, note=54, velocity=127, time=120)\n",
      "Message('control_change', channel=0, control=10, value=53, time=0)\n",
      "Message('note_on', channel=0, note=110, velocity=64, time=0)\n",
      "Message('note_off', channel=0, note=110, velocity=127, time=120)\n",
      "Message('control_change', channel=0, control=10, value=113, time=0)\n",
      "Message('note_on', channel=0, note=59, velocity=64, time=0)\n",
      "Message('note_off', channel=0, note=59, velocity=127, time=120)\n",
      "Message('control_change', channel=0, control=10, value=0, time=0)\n",
      "Message('note_on', channel=0, note=78, velocity=64, time=0)\n",
      "Message('note_off', channel=0, note=78, velocity=127, time=120)\n",
      "Message('control_change', channel=0, control=10, value=107, time=0)\n",
      "Message('note_on', channel=0, note=102, velocity=64, time=0)\n",
      "Message('note_off', channel=0, note=102, velocity=127, time=120)\n",
      "Message('control_change', channel=0, control=10, value=62, time=0)\n",
      "Message('note_on', channel=0, note=50, velocity=64, time=0)\n",
      "Message('note_off', channel=0, note=50, velocity=127, time=120)\n",
      "Message('control_change', channel=0, control=10, value=21, time=0)\n",
      "Message('note_on', channel=0, note=102, velocity=64, time=0)\n",
      "Message('note_off', channel=0, note=102, velocity=127, time=120)\n",
      "Message('control_change', channel=0, control=10, value=126, time=0)\n",
      "Message('note_on', channel=0, note=76, velocity=64, time=0)\n",
      "Message('note_off', channel=0, note=76, velocity=127, time=120)\n",
      "Message('control_change', channel=0, control=10, value=12, time=0)\n",
      "Message('note_on', channel=0, note=62, velocity=64, time=0)\n",
      "Message('note_off', channel=0, note=62, velocity=127, time=120)\n",
      "Message('control_change', channel=0, control=10, value=75, time=0)\n",
      "Message('note_on', channel=0, note=110, velocity=64, time=0)\n",
      "Message('note_off', channel=0, note=110, velocity=127, time=120)\n",
      "Message('control_change', channel=0, control=10, value=96, time=0)\n",
      "Message('note_on', channel=0, note=52, velocity=64, time=0)\n",
      "Message('note_off', channel=0, note=52, velocity=127, time=120)\n",
      "Message('control_change', channel=0, control=10, value=2, time=0)\n",
      "Message('note_on', channel=0, note=88, velocity=64, time=0)\n",
      "Message('note_off', channel=0, note=88, velocity=127, time=120)\n",
      "Message('control_change', channel=0, control=10, value=120, time=0)\n",
      "Message('note_on', channel=0, note=93, velocity=64, time=0)\n",
      "Message('note_off', channel=0, note=93, velocity=127, time=120)\n",
      "Message('control_change', channel=0, control=10, value=40, time=0)\n",
      "Message('note_on', channel=0, note=50, velocity=64, time=0)\n",
      "Message('note_off', channel=0, note=50, velocity=127, time=120)\n",
      "Message('control_change', channel=0, control=10, value=40, time=0)\n",
      "Message('note_on', channel=0, note=110, velocity=64, time=0)\n",
      "Message('note_off', channel=0, note=110, velocity=127, time=120)\n",
      "Message('control_change', channel=0, control=10, value=120, time=0)\n",
      "Message('note_on', channel=0, note=66, velocity=64, time=0)\n",
      "Message('note_off', channel=0, note=66, velocity=127, time=120)\n",
      "Message('control_change', channel=0, control=10, value=2, time=0)\n",
      "Message('note_on', channel=0, note=71, velocity=64, time=0)\n",
      "Message('note_off', channel=0, note=71, velocity=127, time=120)\n",
      "Message('control_change', channel=0, control=10, value=96, time=0)\n",
      "Message('note_on', channel=0, note=107, velocity=64, time=0)\n",
      "Message('note_off', channel=0, note=107, velocity=127, time=120)\n",
      "Message('control_change', channel=0, control=10, value=76, time=0)\n",
      "Message('note_on', channel=0, note=50, velocity=64, time=0)\n",
      "Message('note_off', channel=0, note=50, velocity=127, time=120)\n",
      "Message('control_change', channel=0, control=10, value=12, time=0)\n",
      "Message('note_on', channel=0, note=98, velocity=64, time=0)\n",
      "Message('note_off', channel=0, note=98, velocity=127, time=120)\n",
      "Message('control_change', channel=0, control=10, value=126, time=0)\n",
      "Message('note_on', channel=0, note=83, velocity=64, time=0)\n",
      "Message('note_off', channel=0, note=83, velocity=127, time=120)\n",
      "Message('control_change', channel=0, control=10, value=21, time=0)\n",
      "Message('note_on', channel=0, note=57, velocity=64, time=0)\n",
      "Message('note_off', channel=0, note=57, velocity=127, time=120)\n",
      "Message('control_change', channel=0, control=10, value=61, time=0)\n",
      "Message('note_on', channel=0, note=110, velocity=64, time=0)\n",
      "Message('note_off', channel=0, note=110, velocity=127, time=120)\n",
      "Message('control_change', channel=0, control=10, value=107, time=0)\n",
      "Message('note_on', channel=0, note=57, velocity=64, time=0)\n",
      "Message('note_off', channel=0, note=57, velocity=127, time=120)\n",
      "Message('control_change', channel=0, control=10, value=0, time=0)\n",
      "Message('note_on', channel=0, note=81, velocity=64, time=0)\n",
      "Message('note_off', channel=0, note=81, velocity=127, time=120)\n",
      "Message('control_change', channel=0, control=10, value=112, time=0)\n",
      "Message('note_on', channel=0, note=100, velocity=64, time=0)\n",
      "Message('note_off', channel=0, note=100, velocity=127, time=120)\n",
      "Message('control_change', channel=0, control=10, value=54, time=0)\n",
      "Message('note_on', channel=0, note=50, velocity=64, time=0)\n",
      "Message('note_off', channel=0, note=50, velocity=127, time=120)\n",
      "Message('control_change', channel=0, control=10, value=27, time=0)\n",
      "Message('note_on', channel=0, note=105, velocity=64, time=0)\n",
      "Message('note_off', channel=0, note=105, velocity=127, time=120)\n",
      "Message('control_change', channel=0, control=10, value=125, time=0)\n",
      "Message('note_on', channel=0, note=71, velocity=64, time=0)\n",
      "Message('note_off', channel=0, note=71, velocity=127, time=120)\n",
      "Message('control_change', channel=0, control=10, value=7, time=0)\n",
      "Message('note_on', channel=0, note=64, velocity=64, time=0)\n",
      "Message('note_off', channel=0, note=64, velocity=127, time=120)\n",
      "Message('control_change', channel=0, control=10, value=83, time=0)\n",
      "Message('note_on', channel=0, note=110, velocity=64, time=0)\n",
      "Message('note_off', channel=0, note=110, velocity=127, time=120)\n",
      "Message('control_change', channel=0, control=10, value=89, time=0)\n",
      "Message('note_on', channel=0, note=52, velocity=64, time=0)\n",
      "Message('note_off', channel=0, note=52, velocity=127, time=120)\n",
      "Message('control_change', channel=0, control=10, value=5, time=0)\n",
      "Message('note_on', channel=0, note=93, velocity=64, time=0)\n",
      "Message('note_off', channel=0, note=93, velocity=127, time=120)\n",
      "Message('control_change', channel=0, control=10, value=123, time=0)\n",
      "Message('note_on', channel=0, note=90, velocity=64, time=0)\n",
      "Message('note_off', channel=0, note=90, velocity=127, time=120)\n",
      "Message('control_change', channel=0, control=10, value=33, time=0)\n",
      "Message('note_on', channel=0, note=52, velocity=64, time=0)\n",
      "Message('note_off', channel=0, note=52, velocity=127, time=120)\n",
      "Message('control_change', channel=0, control=10, value=48, time=0)\n",
      "Message('note_on', channel=0, note=110, velocity=64, time=0)\n",
      "Message('note_off', channel=0, note=110, velocity=127, time=120)\n",
      "Message('control_change', channel=0, control=10, value=116, time=0)\n",
      "Message('note_on', channel=0, note=62, velocity=64, time=0)\n",
      "Message('note_off', channel=0, note=62, velocity=127, time=120)\n",
      "Message('control_change', channel=0, control=10, value=0, time=0)\n",
      "Message('note_on', channel=0, note=74, velocity=64, time=0)\n",
      "Message('note_off', channel=0, note=74, velocity=127, time=120)\n",
      "Message('control_change', channel=0, control=10, value=103, time=0)\n",
      "Message('note_on', channel=0, note=105, velocity=64, time=0)\n",
      "Message('note_off', channel=0, note=105, velocity=127, time=120)\n",
      "Message('control_change', channel=0, control=10, value=67, time=0)\n",
      "Message('note_on', channel=0, note=50, velocity=64, time=0)\n",
      "Message('note_off', channel=0, note=50, velocity=127, time=120)\n",
      "Message('control_change', channel=0, control=10, value=17, time=0)\n",
      "Message('note_on', channel=0, note=100, velocity=64, time=0)\n",
      "Message('note_off', channel=0, note=100, velocity=127, time=120)\n",
      "=== Track 2\n",
      "MetaMessage('track_name', name='gong', time=0)\n",
      "Message('program_change', channel=1, program=32, time=0)\n",
      "Message('note_on', channel=1, note=26, velocity=64, time=0)\n",
      "Message('note_off', channel=1, note=26, velocity=127, time=600)\n",
      "Message('note_on', channel=1, note=26, velocity=64, time=0)\n",
      "Message('note_off', channel=1, note=26, velocity=127, time=600)\n",
      "Message('note_on', channel=1, note=26, velocity=64, time=0)\n",
      "Message('note_off', channel=1, note=26, velocity=127, time=600)\n",
      "Message('note_on', channel=1, note=26, velocity=64, time=0)\n",
      "Message('note_off', channel=1, note=26, velocity=127, time=600)\n",
      "Message('note_on', channel=1, note=26, velocity=64, time=0)\n",
      "Message('note_off', channel=1, note=26, velocity=127, time=600)\n",
      "Message('note_on', channel=1, note=26, velocity=64, time=0)\n",
      "Message('note_off', channel=1, note=26, velocity=127, time=600)\n",
      "Message('note_on', channel=1, note=26, velocity=64, time=0)\n",
      "Message('note_off', channel=1, note=26, velocity=127, time=600)\n",
      "Message('note_on', channel=1, note=26, velocity=64, time=0)\n",
      "Message('note_off', channel=1, note=26, velocity=127, time=600)\n",
      "Message('note_on', channel=1, note=26, velocity=64, time=0)\n",
      "Message('note_off', channel=1, note=26, velocity=127, time=600)\n",
      "Message('note_on', channel=1, note=26, velocity=64, time=0)\n",
      "Message('note_off', channel=1, note=26, velocity=127, time=600)\n",
      "Message('note_on', channel=1, note=26, velocity=64, time=0)\n",
      "Message('note_off', channel=1, note=26, velocity=127, time=600)\n",
      "Message('note_on', channel=1, note=26, velocity=64, time=0)\n",
      "Message('note_off', channel=1, note=26, velocity=127, time=600)\n",
      "Message('note_on', channel=1, note=26, velocity=64, time=0)\n",
      "Message('note_off', channel=1, note=26, velocity=127, time=600)\n",
      "Message('note_on', channel=1, note=26, velocity=64, time=0)\n",
      "Message('note_off', channel=1, note=26, velocity=127, time=600)\n",
      "Message('note_on', channel=1, note=26, velocity=64, time=0)\n",
      "Message('note_off', channel=1, note=26, velocity=127, time=600)\n",
      "Message('note_on', channel=1, note=26, velocity=64, time=0)\n",
      "Message('note_off', channel=1, note=26, velocity=127, time=600)\n",
      "Message('note_on', channel=1, note=26, velocity=64, time=0)\n",
      "Message('note_off', channel=1, note=26, velocity=127, time=600)\n",
      "Message('note_on', channel=1, note=26, velocity=64, time=0)\n",
      "Message('note_off', channel=1, note=26, velocity=127, time=600)\n",
      "Message('note_on', channel=1, note=38, velocity=64, time=0)\n",
      "Message('note_off', channel=1, note=38, velocity=127, time=600)\n",
      "Message('note_on', channel=1, note=38, velocity=64, time=0)\n",
      "Message('note_off', channel=1, note=38, velocity=127, time=600)\n",
      "Message('note_on', channel=1, note=38, velocity=64, time=0)\n",
      "Message('note_off', channel=1, note=38, velocity=127, time=600)\n",
      "Message('note_on', channel=1, note=38, velocity=64, time=0)\n",
      "Message('note_off', channel=1, note=38, velocity=127, time=600)\n",
      "Message('note_on', channel=1, note=38, velocity=64, time=0)\n",
      "Message('note_off', channel=1, note=38, velocity=127, time=600)\n",
      "Message('note_on', channel=1, note=38, velocity=64, time=0)\n",
      "Message('note_off', channel=1, note=38, velocity=127, time=600)\n",
      "Message('note_on', channel=1, note=38, velocity=64, time=0)\n",
      "Message('note_off', channel=1, note=38, velocity=127, time=600)\n",
      "Message('note_on', channel=1, note=38, velocity=64, time=0)\n",
      "Message('note_off', channel=1, note=38, velocity=127, time=600)\n",
      "Message('note_on', channel=1, note=38, velocity=64, time=0)\n",
      "Message('note_off', channel=1, note=38, velocity=127, time=600)\n",
      "Message('note_on', channel=1, note=38, velocity=64, time=0)\n",
      "Message('note_off', channel=1, note=38, velocity=127, time=600)\n"
     ]
    }
   ],
   "source": []
  },
  {
   "cell_type": "code",
   "execution_count": 14,
   "id": "c667cc88-f2a2-49ab-9cb6-190f9741234c",
   "metadata": {},
   "outputs": [
    {
     "data": {
      "text/plain": [
       "[60,\n",
       " 62,\n",
       " 64,\n",
       " 65,\n",
       " 67,\n",
       " 69,\n",
       " 71,\n",
       " 72,\n",
       " 74,\n",
       " 76,\n",
       " 77,\n",
       " 79,\n",
       " 81,\n",
       " 83,\n",
       " 84,\n",
       " 86,\n",
       " 88,\n",
       " 89,\n",
       " 91,\n",
       " 93,\n",
       " 95,\n",
       " 96]"
      ]
     },
     "execution_count": 14,
     "metadata": {},
     "output_type": "execute_result"
    }
   ],
   "source": [
    "pm.build_scale(root=60)"
   ]
  },
  {
   "cell_type": "code",
   "execution_count": null,
   "id": "3443fb55-217d-419a-af3f-8f754c0d3041",
   "metadata": {},
   "outputs": [],
   "source": []
  }
 ],
 "metadata": {
  "kernelspec": {
   "display_name": "Python 3 (ipykernel)",
   "language": "python",
   "name": "python3"
  },
  "language_info": {
   "codemirror_mode": {
    "name": "ipython",
    "version": 3
   },
   "file_extension": ".py",
   "mimetype": "text/x-python",
   "name": "python",
   "nbconvert_exporter": "python",
   "pygments_lexer": "ipython3",
   "version": "3.9.7"
  }
 },
 "nbformat": 4,
 "nbformat_minor": 5
}
