0, 0, Header, 0, 1, 96
1, 0, Start_track
1, 0, Title_t, "\000"
1, 0, Time_signature, 4, 2, 36, 8
1, 0, Time_signature, 4, 2, 36, 8
1, 0, Note_on_c, 0, 50, 86
1, 96, Note_off_c, 0, 50, 64
1, 144, Note_on_c, 0, 62, 86
1, 168, Note_off_c, 0, 62, 64
1, 168, Note_on_c, 0, 62, 86
1, 192, Note_off_c, 0, 62, 64
1, 240, Note_on_c, 0, 55, 86
1, 288, Note_off_c, 0, 55, 64
1, 288, Note_on_c, 0, 57, 86
1, 336, Note_off_c, 0, 57, 64
1, 336, Note_on_c, 0, 60, 86
1, 384, Note_on_c, 0, 50, 86
1, 384, Note_off_c, 0, 60, 64
1, 480, Note_off_c, 0, 50, 64
1, 528, Note_on_c, 0, 62, 86
1, 552, Note_off_c, 0, 62, 64
1, 552, Note_on_c, 0, 62, 86
1, 576, Note_off_c, 0, 62, 64
1, 624, Note_on_c, 0, 55, 86
1, 672, Note_off_c, 0, 55, 64
1, 672, Note_on_c, 0, 57, 86
1, 720, Note_off_c, 0, 57, 64
1, 768, Note_on_c, 0, 50, 86
1, 864, Note_off_c, 0, 50, 64
1, 912, Note_on_c, 0, 62, 86
1, 936, Note_off_c, 0, 62, 64
1, 936, Note_on_c, 0, 62, 86
1, 960, Note_off_c, 0, 62, 64
1, 1008, Note_on_c, 0, 47, 86
1, 1056, Note_off_c, 0, 47, 64
1, 1056, Note_on_c, 0, 48, 86
1, 1104, Note_off_c, 0, 48, 64
1, 1104, Note_on_c, 0, 49, 86
1, 1152, Note_off_c, 0, 49, 64
1, 1152, Note_on_c, 0, 50, 86
1, 1248, Note_off_c, 0, 50, 64
1, 1296, Note_on_c, 0, 62, 86
1, 1320, Note_off_c, 0, 62, 64
1, 1320, Note_on_c, 0, 62, 86
1, 1344, Note_off_c, 0, 62, 64
1, 1344, End_track
0, 0, End_of_file